<?xml version="1.0" encoding="utf-8"?>
<!-- Generator: Adobe Illustrator 21.0.0, SVG Export Plug-In . SVG Version: 6.00 Build 0)  -->
<svg version="1.1" id="Layer_1" xmlns="http://www.w3.org/2000/svg" xmlns:xlink="http://www.w3.org/1999/xlink" x="0px" y="0px"
	 viewBox="0 0 150 150" style="enable-background:new 0 0 150 150;" xml:space="preserve">
<style type="text/css">
	.st0{fill:#563D7C;}
	.st1{fill:#FFFFFF;}
</style>
<g>
	<path class="st0" d="M0,130.7C0,141.3,8.7,150,19.3,150h111.3c10.7,0,19.3-8.7,19.3-19.3V19.3C150,8.7,141.3,0,130.7,0H19.3
		C8.7,0,0,8.7,0,19.3V130.7z"/>
	<path class="st1" d="M62.2,66.4V45.1h18.7c1.8,0,3.5,0.1,5.2,0.4c1.7,0.3,3.1,0.8,4.4,1.6c1.3,0.8,2.3,1.8,3.1,3.2s1.1,3.1,1.1,5.2
		c0,3.8-1.1,6.6-3.4,8.3c-2.3,1.7-5.2,2.5-8.8,2.5H62.2L62.2,66.4z M42.2,29.6v90.8h44c4.1,0,8-0.5,11.9-1.5c3.9-1,7.3-2.6,10.3-4.7
		c3-2.1,5.4-4.9,7.2-8.2c1.8-3.3,2.7-7.3,2.7-11.9c0-5.7-1.4-10.5-4.1-14.6c-2.8-4-6.9-6.8-12.5-8.5c4.1-2,7.1-4.5,9.2-7.5
		c2.1-3.1,3.1-6.9,3.1-11.4c0-4.2-0.7-7.8-2.1-10.7c-1.4-2.9-3.4-5.2-5.9-6.9c-2.5-1.7-5.6-3-9.2-3.8c-3.6-0.8-7.5-1.1-11.8-1.1
		H42.2L42.2,29.6z M62.2,104.9V80H84c4.3,0,7.8,1,10.4,3c2.6,2,3.9,5.3,3.9,10c0,2.4-0.4,4.3-1.2,5.9c-0.8,1.5-1.9,2.7-3.2,3.6
		c-1.4,0.9-2.9,1.5-4.7,1.9s-3.6,0.6-5.6,0.6H62.2L62.2,104.9z"/>
</g>
</svg>
