<?xml version="1.0" encoding="utf-8"?>
<!-- Generator: Adobe Illustrator 21.0.0, SVG Export Plug-In . SVG Version: 6.00 Build 0)  -->
<svg version="1.1" id="Layer_1" xmlns="http://www.w3.org/2000/svg" xmlns:xlink="http://www.w3.org/1999/xlink" x="0px" y="0px"
	 viewBox="0 0 150 150" style="enable-background:new 0 0 150 150;" xml:space="preserve">
<style type="text/css">
	.st0{fill:#2062AF;}
	.st1{fill:#3C9CD7;}
	.st2{fill:#FAF8FF;}
	.st3{enable-background:new    ;}
	.st4{fill:#F4F4F4;}
</style>
<g>
	<path class="st0" d="M118.5,138.3L75,150l-43.5-11.7l-10-108.8h107.1L118.5,138.3z"/>
	<path class="st1" d="M75,38.3v102.3l0.1,0l35.2-9.5l8.1-92.9L75,38.3L75,38.3z"/>
	<path d="M50.3,13.6V7.1h9.4V0H43.2v20h16.5v-6.5H50.3z M76.7,7.1h6.6V0H66.8v7.1c2.2,2.2,3.4,3.3,6.6,6.5c-1.9,0-6.6,0-6.6,0V20
		h16.5v-6.5L76.7,7.1L76.7,7.1z M100.2,7.1h6.6V0H90.2v7.1c2.2,2.2,3.4,3.3,6.6,6.5c-1.9,0-6.6,0-6.6,0V20h16.5v-6.5L100.2,7.1
		L100.2,7.1z"/>
	<polygon class="st2" points="108.3,51.6 108.3,51.6 41,51.6 42.6,64.8 76.8,64.8 76.3,65 75,65.5 43.8,78.5 44.9,91.3 44.9,91.3 
		44.9,91.3 91.1,91.5 90.1,108.6 74.9,112.9 60.3,109.2 59.4,98.6 45.8,98.6 47.6,119.1 75,127.2 102.3,119.2 105.9,78.5 74.9,78.5 
		75,78.5 107,64.8 107,64.8 108.3,51.6 108.3,51.6 	"/>
	<g class="st3">
		<path class="st4" d="M75,51.6H41l1.6,13.1H75L75,51.6L75,51.6z M60.2,109.2l-0.9-10.6H45.7l1.8,20.5l27.4,8.1v-14.4l-0.1,0
			L60.2,109.2z M75,78.5V65.5l-31.1,13l1,12.8l0,0l0,0L75,91.4L75,78.5L75,78.5L75,78.5z"/>
	</g>
</g>
</svg>
