<?xml version="1.0" encoding="utf-8"?>
<!-- Generator: Adobe Illustrator 21.0.0, SVG Export Plug-In . SVG Version: 6.00 Build 0)  -->
<svg version="1.1" id="Layer_1" xmlns="http://www.w3.org/2000/svg" xmlns:xlink="http://www.w3.org/1999/xlink" x="0px" y="0px"
	 viewBox="0 0 150 150" style="enable-background:new 0 0 150 150;" xml:space="preserve">
<style type="text/css">
	.st0{fill:#136DA9;}
	.st1{fill:#F0F0F0;}
	.st2{fill:none;stroke:#FFFDFF;}
	.st3{fill:#008ECE;}
	.st4{fill:#A0D8F1;}
</style>
<g>
	<path class="st0" d="M52.8,23.9C26.5,35.1,10,56.9,10,85c0,35.9,29.1,65,65,65c35.9,0,65-29.1,65-65c0-43.2-40.1-60.3-40.1-60.3
		s-8.8-3.6-13.7-6.9c0,0-6.2-3.8-17-17.7C69.3,0.1,69.5,15.9,52.8,23.9"/>
	<path class="st1" d="M68.5,137.4c-2.3-1.6-1.7-6.6,4.4-3c0,0,13.2,9.7,34-1.9c1.6-0.9,3.6,2.3-1.5,5.2
		C105.4,137.7,84.3,148.4,68.5,137.4L68.5,137.4z"/>
	<path class="st2" d="M68.5,137.4c-2.3-1.6-1.7-6.6,4.4-3c0,0,13.2,9.7,34-1.9c1.6-0.9,3.6,2.3-1.5,5.2
		C105.4,137.7,84.3,148.4,68.5,137.4L68.5,137.4z"/>
	<path class="st1" d="M95.4,121.4c7.7,0.9,5,4.6,7.1,5.2c4.2,1.2,2.4-3.4,2.4-3.4c-3.1-6.2-8.4-5.8-8.4-5.8
		C88,116,81.8,124,81.8,124c-1.5,3.4,0.6,3.6,1.4,3.2C87.2,125.4,89.7,120.7,95.4,121.4z"/>
	<path class="st3" d="M18.5,117.7c0,0,23.3,19.3,80-23.7c0,0,28.5-17.9,27.6-48.5c0,0-9.2-13.2-24.8-20.1
		c-2.2-1-21.6-11.6-32.1-24.9c0,0-1.9,38.6-51.3,53.8c0,0-12.5,18.4-5.7,48.2C12.3,102.5,16.6,114.6,18.5,117.7"/>
	<path class="st1" d="M55.5,124.9c0,0-19.3,0.5-17-20.1c0,0,4-23.2,31.2-18c0,0,5.9,1.3,17,9.8c0,0,7.3,5.6,11.3,5.5
		c0,0,3.1,0.3,9.6-3.8c0,0,13.3-10.2,17.9-9.9c0.1,0,9.4-1,9.4,13.9c0,0,0.2,16.4-12.2,21.9c0,0-3.3,1.1-6.8-2.6
		c0,0-10.1-11.5-15.1-13.4c0,0-2.9-1.1-6.7,0.3c0,0-2.5,0.3-12.7,7C81.3,115.4,64.2,126.1,55.5,124.9L55.5,124.9z"/>
	<path class="st2" d="M55.5,124.9c0,0-19.3,0.5-17-20.1c0,0,4-23.2,31.2-18c0,0,5.9,1.3,17,9.8c0,0,7.3,5.6,11.3,5.5
		c0,0,3.1,0.3,9.6-3.8c0,0,13.3-10.2,17.9-9.9c0.1,0,9.4-1,9.4,13.9c0,0,0.2,16.4-12.2,21.9c0,0-3.3,1.1-6.8-2.6
		c0,0-10.1-11.5-15.1-13.4c0,0-2.9-1.1-6.7,0.3c0,0-2.5,0.3-12.7,7C81.3,115.4,64.2,126.1,55.5,124.9L55.5,124.9z"/>
	<path class="st3" d="M65.7,50.9C78.2,32.9,69.2,0,69.2,0c-1.1,17.9-16.2,23.8-16.2,23.8c-27,11.7-35.1,30-35.1,30
		C23.7,62,39.1,89,65.7,50.9"/>
	<path class="st4" d="M69.2,0c0,0,1.6,15-6.5,19.9c0,0-13.1,6.1-17.1,8.1c0,0-16.8,10.1-22.4,19.7c0,0-11.9,15.9,4.5,12.1
		c0,0,29.6-8.4,41.6-33.6c0,0,0.7-2.1-1.5-4.3C67.9,21.9,76.9,15.1,69.2,0"/>
	<path class="st1" d="M69.2,0c0,0,0.7,10.3-7.8,18.8c0,0-2.6,3.6-15.8,9.3c0,0-15.1,7.9-21.9,18.8c0,0-10.1,12.1,3.7,8.9
		c0,0,27.9-10.3,38.2-29.2c0,0,1.4-2-0.7-4C64.9,22.5,74.9,14.7,69.2,0"/>
	<path class="st2" d="M95.4,121.4c7.7,0.9,5,4.6,7.1,5.2c4.2,1.2,2.4-3.4,2.4-3.4c-3.1-6.2-8.4-5.8-8.4-5.8
		C88,116,81.8,124,81.8,124c-1.5,3.4,0.6,3.6,1.4,3.2C87.2,125.4,89.7,120.7,95.4,121.4z"/>
</g>
</svg>
