<?xml version="1.0" encoding="utf-8"?>
<!-- Generator: Adobe Illustrator 21.0.0, SVG Export Plug-In . SVG Version: 6.00 Build 0)  -->
<svg version="1.1" id="Layer_1" xmlns="http://www.w3.org/2000/svg" xmlns:xlink="http://www.w3.org/1999/xlink" x="0px" y="0px"
	 viewBox="0 0 150 150" style="enable-background:new 0 0 150 150;" xml:space="preserve">
<style type="text/css">
	.st0{fill:#222222;}
</style>
<g>
	<path class="st0" d="M1,87.2V70.5h20.8v-1H1V54.3h22.2v-1H0v34.9h23.3v-1H1L1,87.2z M42.1,63l-8.6,11.4L25,63h-1.3l9.1,12.1l-10,13
		h1.2l9.4-12.3L43,88.1h1.2l-10.1-13L43.3,63L42.1,63L42.1,63z M47.1,96.7V81.1h0.1c0.6,2.3,1.7,4.1,3.5,5.5
		c1.7,1.4,3.9,2.1,6.6,2.1c1.7,0,3.3-0.3,4.6-1c1.3-0.7,2.4-1.7,3.3-2.9c0.9-1.2,1.6-2.6,2.1-4.2c0.5-1.6,0.7-3.3,0.7-5
		c0-1.9-0.2-3.6-0.7-5.2c-0.5-1.6-1.2-3-2.1-4.1c-0.9-1.2-2.1-2.1-3.4-2.7c-1.3-0.7-2.8-1-4.5-1c-1.3,0-2.4,0.2-3.5,0.6
		c-1.1,0.4-2.1,0.9-2.9,1.6c-0.9,0.7-1.6,1.5-2.2,2.4c-0.6,0.9-1.1,1.9-1.4,3.1h-0.1v-7h-1v33.7H47.1L47.1,96.7z M57.3,87.7
		c-3.1,0-5.5-1-7.4-3.1c-1.9-2.1-2.8-5.1-2.8-9.1c0-1.6,0.2-3.2,0.7-4.6c0.5-1.5,1.1-2.7,2-3.9c0.9-1.1,1.9-2,3.2-2.6
		c1.3-0.7,2.7-1,4.3-1c1.6,0,3.1,0.3,4.3,1c1.2,0.7,2.2,1.5,3,2.7c0.8,1.1,1.4,2.4,1.8,3.9c0.4,1.4,0.6,3,0.6,4.6
		c0,1.5-0.2,2.9-0.6,4.4c-0.4,1.4-1,2.7-1.7,3.9c-0.8,1.2-1.8,2.1-3,2.8C60.5,87.4,59,87.7,57.3,87.7L57.3,87.7z M73.3,88.1V73.9
		c0-1.4,0.2-2.7,0.6-4c0.4-1.3,1-2.4,1.8-3.4c0.8-1,1.8-1.8,3.1-2.3c1.3-0.6,2.7-0.8,4.5-0.7v-1c-1.5,0-2.8,0.1-3.9,0.5
		c-1.1,0.4-2.1,0.8-2.9,1.5c-0.8,0.6-1.5,1.3-2,2.2c-0.5,0.8-0.8,1.7-1.1,2.7h-0.1V63h-1v25.1L73.3,88.1L73.3,88.1z M84.5,75.8h21
		c0.1-1.7-0.1-3.4-0.5-5c-0.4-1.6-1.1-3-2-4.2c-0.9-1.2-2.1-2.2-3.5-3c-1.4-0.7-3.1-1.1-5.1-1.1c-1.4,0-2.8,0.3-4.1,0.9
		c-1.3,0.6-2.5,1.4-3.5,2.6s-1.8,2.5-2.4,4.1c-0.6,1.6-0.9,3.5-0.9,5.6c0,1.9,0.2,3.6,0.6,5.2c0.4,1.6,1.1,3,2,4.2
		c0.9,1.2,2,2.1,3.4,2.8c1.4,0.7,3.1,1,5,0.9c2.9,0,5.3-0.8,7.2-2.4c2-1.6,3.1-3.9,3.5-6.8h-1c-0.4,2.8-1.5,4.8-3.2,6.2
		c-1.7,1.4-3.9,2.1-6.6,2.1c-1.8,0-3.3-0.3-4.5-0.9c-1.2-0.6-2.2-1.5-3-2.5c-0.8-1.1-1.4-2.3-1.7-3.8C84.7,79,84.5,77.5,84.5,75.8
		L84.5,75.8z M104.5,74.8h-20c0.1-1.8,0.4-3.3,1-4.7c0.6-1.4,1.3-2.6,2.2-3.6c0.9-1,1.9-1.7,3.1-2.3c1.2-0.5,2.5-0.8,3.8-0.8
		c1.6,0,3.1,0.3,4.3,0.9c1.2,0.6,2.3,1.4,3.1,2.5c0.8,1,1.5,2.3,1.9,3.6C104.3,71.8,104.5,73.3,104.5,74.8L104.5,74.8z M125.7,70.5
		h1c0-2.8-0.8-4.8-2.4-6.1c-1.6-1.3-3.8-1.9-6.6-1.9c-1.6,0-2.9,0.2-4,0.6c-1.1,0.4-2,0.9-2.6,1.5c-0.7,0.6-1.2,1.3-1.5,2.1
		s-0.4,1.5-0.4,2.1c0,1.4,0.2,2.5,0.7,3.3c0.5,0.8,1.3,1.4,2.3,1.9c0.7,0.3,1.5,0.6,2.4,0.9c0.9,0.3,2,0.5,3.2,0.8
		c1.1,0.3,2.1,0.5,3.2,0.8c1,0.3,2,0.6,2.8,1c0.8,0.4,1.4,1,2,1.7c0.5,0.7,0.8,1.6,0.8,2.7c0,1.1-0.3,2-0.8,2.7
		c-0.5,0.7-1.2,1.4-1.9,1.8c-0.8,0.5-1.7,0.8-2.6,1c-1,0.2-1.9,0.3-2.8,0.3c-3,0-5.2-0.7-6.8-2c-1.6-1.3-2.4-3.4-2.4-6.2h-1
		c0,3.2,0.9,5.5,2.6,6.9c1.7,1.5,4.2,2.2,7.6,2.2c1.1,0,2.2-0.1,3.2-0.4c1.1-0.2,2.1-0.6,2.9-1.2c0.9-0.5,1.6-1.3,2.1-2.1
		c0.5-0.9,0.8-2,0.8-3.2c0-1.2-0.2-2.2-0.7-2.9c-0.5-0.7-1.1-1.4-1.9-1.9c-0.8-0.5-1.6-0.9-2.6-1.1c-1-0.3-1.9-0.5-2.9-0.8
		c-1.2-0.3-2.4-0.6-3.6-0.9c-1-0.3-2-0.6-2.9-0.9c-0.8-0.4-1.5-0.9-2-1.5s-0.8-1.6-0.8-2.9c0-0.2,0.1-0.6,0.2-1.2
		c0.1-0.6,0.4-1.2,0.9-1.8c0.5-0.6,1.2-1.1,2.2-1.6c1-0.5,2.4-0.7,4.1-0.7c1.2,0,2.3,0.1,3.3,0.4c1,0.3,1.8,0.7,2.6,1.2
		c0.7,0.6,1.3,1.3,1.7,2.2C125.5,68.1,125.7,69.2,125.7,70.5L125.7,70.5z M148.3,70.5h1c0-2.8-0.8-4.8-2.4-6.1
		c-1.6-1.3-3.8-1.9-6.6-1.9c-1.6,0-2.9,0.2-4,0.6c-1.1,0.4-2,0.9-2.6,1.5c-0.7,0.6-1.2,1.3-1.5,2.1s-0.4,1.5-0.4,2.1
		c0,1.4,0.2,2.5,0.7,3.3c0.5,0.8,1.3,1.4,2.3,1.9c0.7,0.3,1.5,0.6,2.4,0.9c0.9,0.3,2,0.5,3.2,0.8c1.1,0.3,2.1,0.5,3.2,0.8
		c1,0.3,2,0.6,2.8,1c0.8,0.4,1.4,1,2,1.7c0.5,0.7,0.8,1.6,0.8,2.7c0,1.1-0.3,2-0.8,2.7c-0.5,0.7-1.2,1.4-1.9,1.8
		c-0.8,0.5-1.7,0.8-2.6,1c-1,0.2-1.9,0.3-2.8,0.3c-3,0-5.2-0.7-6.8-2c-1.6-1.3-2.4-3.4-2.4-6.2h-1c0,3.2,0.9,5.5,2.6,6.9
		c1.7,1.5,4.2,2.2,7.6,2.2c1.1,0,2.2-0.1,3.2-0.4c1.1-0.2,2.1-0.6,2.9-1.2c0.9-0.5,1.6-1.3,2.1-2.1c0.5-0.9,0.8-2,0.8-3.2
		c0-1.2-0.2-2.2-0.7-2.9c-0.5-0.7-1.1-1.4-1.9-1.9c-0.8-0.5-1.6-0.9-2.6-1.1c-1-0.3-1.9-0.5-2.9-0.8c-1.2-0.3-2.4-0.6-3.6-0.9
		c-1-0.3-2-0.6-2.9-0.9c-0.8-0.4-1.5-0.9-2-1.5c-0.5-0.7-0.8-1.6-0.8-2.9c0-0.2,0.1-0.6,0.2-1.2c0.1-0.6,0.4-1.2,0.9-1.8
		c0.5-0.6,1.2-1.1,2.2-1.6c1-0.5,2.4-0.7,4.1-0.7c1.2,0,2.3,0.1,3.3,0.4c1,0.3,1.8,0.7,2.6,1.2c0.7,0.6,1.3,1.3,1.7,2.2
		C148.1,68.1,148.3,69.2,148.3,70.5L148.3,70.5z"/>
</g>
</svg>
