<?xml version="1.0" encoding="utf-8"?>
<!-- Generator: Adobe Illustrator 21.0.0, SVG Export Plug-In . SVG Version: 6.00 Build 0)  -->
<svg version="1.1" id="Layer_1" xmlns="http://www.w3.org/2000/svg" xmlns:xlink="http://www.w3.org/1999/xlink" x="0px" y="0px"
	 viewBox="0 0 150 150" style="enable-background:new 0 0 150 150;" xml:space="preserve">
<style type="text/css">
	.st0{fill:#E44D26;}
	.st1{fill:#F16529;}
	.st2{fill:#EBEBEB;}
	.st3{fill:#FFFFFF;}
</style>
<g>
	<path class="st0" d="M31.5,138L21.9,29.5h106.3l-9.7,108.5L74.9,150L31.5,138z"/>
	<path class="st1" d="M75,140.8l35.2-9.7l8.3-92.7H75V140.8z"/>
	<path class="st2" d="M75,78.6H57.4L56.2,65H75V51.7H41.6l0.3,3.6l3.3,36.7H75V78.6z M75,113.1L75,113.1l-14.9-4l-0.9-10.6H45.8
		l1.9,20.9l27.3,7.6l0.1,0V113.1z"/>
	<path d="M31.8,0h6.8v6.7h6.2V0h6.8v20.2h-6.8v-6.8h-6.2v6.8h-6.8L31.8,0z M60.3,6.7h-6V0h18.7v6.7h-6v13.5h-6.8L60.3,6.7L60.3,6.7z
		 M76,0h7.1l4.3,7.1L91.7,0h7.1v20.2h-6.7v-10l-4.7,7.2h-0.1l-4.7-7.2v10H76L76,0L76,0z M102.2,0h6.8v13.5h9.5v6.7h-16.3V0z"/>
	<path class="st3" d="M75,78.6v13.3h16.4l-1.5,17.3l-14.8,4V127l27.3-7.6l0.2-2.2l3.1-35l0.3-3.6h-3.6L75,78.6z M75,51.7V65h32.1
		l0.3-3l0.6-6.7l0.3-3.6L75,51.7z"/>
</g>
</svg>
