<?xml version="1.0" encoding="utf-8"?>
<!-- Generator: Adobe Illustrator 21.0.0, SVG Export Plug-In . SVG Version: 6.00 Build 0)  -->
<svg version="1.1" id="Layer_1" xmlns="http://www.w3.org/2000/svg" xmlns:xlink="http://www.w3.org/1999/xlink" x="0px" y="0px"
	 viewBox="0 0 150 150" style="enable-background:new 0 0 150 150;" xml:space="preserve">
<style type="text/css">
	.st0{fill:url(#SVGID_1_);}
	.st1{fill:#FF7F18;}
</style>
<radialGradient id="SVGID_1_" cx="-325.1412" cy="-109.4286" r="0.76" gradientTransform="matrix(137.5001 0 0 -136.5383 44758.4727 -14904.0371)" gradientUnits="userSpaceOnUse">
	<stop  offset="0" style="stop-color:#423325;stop-opacity:0.98"/>
	<stop  offset="1" style="stop-color:#1C0A00"/>
</radialGradient>
<path class="st0" d="M6.3,6.4h137.5v137.2H6.3V6.4z"/>
<path class="st1" d="M6.3,6.4h137.5v137.2H6.3V6.4z M0,150h150V0H0V150z M98.3,53.5c0-0.5,0.2-0.8,0.8-0.8h9.8
	c0.5,0,0.7,0.2,0.7,0.8V104c0,0.5-0.1,0.8-0.7,0.8h-9.7c-0.6,0-0.8-0.3-0.8-0.8L98.3,53.5L98.3,53.5L98.3,53.5z M97.6,38.9
	c0-4.1,2.8-6.5,6.4-6.5c3.8,0,6.4,2.6,6.4,6.5c0,4.2-2.7,6.5-6.5,6.5C100.2,45.5,97.6,43.1,97.6,38.9z M69.4,74.6
	c-1.7-7.1-5.9-22.6-7.4-30.1h-0.1c-1.3,7.5-4.6,20.2-7.2,30.1H69.4z M52.1,84.9l-4.9,19.2c-0.1,0.5-0.3,0.6-0.9,0.6H37
	c-0.6,0-0.8-0.2-0.6-1l17.7-63.7c0.3-1.2,0.5-2.2,0.6-5.3c0-0.4,0.2-0.6,0.5-0.6h13.1c0.4,0,0.6,0.1,0.8,0.6L89,104
	c0.1,0.5,0,0.8-0.5,0.8H78.1c-0.5,0-0.8-0.1-0.9-0.6l-5.1-19.3H52.1L52.1,84.9z"/>
</svg>
