<?xml version="1.0" encoding="utf-8"?>
<!-- Generator: Adobe Illustrator 21.0.0, SVG Export Plug-In . SVG Version: 6.00 Build 0)  -->
<svg version="1.1" id="Layer_1" xmlns="http://www.w3.org/2000/svg" xmlns:xlink="http://www.w3.org/1999/xlink" x="0px" y="0px"
	 viewBox="0 0 150 150" style="enable-background:new 0 0 150 150;" xml:space="preserve">
<style type="text/css">
	.st0{fill:#F7DF1E;}
</style>
<g>
	<path class="st0" d="M0,0h150v150H0V0z"/>
	<path d="M39.4,125.4l11.5-6.9c2.2,3.9,4.2,7.2,9.1,7.2c4.6,0,7.6-1.8,7.6-8.9V68.9h14.1V117c0,14.6-8.6,21.2-21,21.2
		C49.3,138.2,42.8,132.4,39.4,125.4 M89.3,123.8l11.5-6.6c3,4.9,6.9,8.6,13.9,8.6c5.8,0,9.6-2.9,9.6-6.9c0-4.8-3.8-6.5-10.3-9.4
		l-3.5-1.5c-10.2-4.3-16.9-9.8-16.9-21.2c0-10.6,8.1-18.6,20.6-18.6c9,0,15.4,3.1,20,11.3l-11,7c-2.4-4.3-5-6-9.1-6
		c-4.1,0-6.7,2.6-6.7,6c0,4.2,2.6,5.9,8.7,8.6l3.5,1.5c12,5.1,18.7,10.4,18.7,22.2c0,12.7-10,19.6-23.4,19.6
		C101.9,138.2,93.4,132,89.3,123.8"/>
</g>
</svg>
