<?xml version="1.0" encoding="utf-8"?>
<!-- Generator: Adobe Illustrator 21.0.0, SVG Export Plug-In . SVG Version: 6.00 Build 0)  -->
<svg version="1.1" id="Layer_1" xmlns="http://www.w3.org/2000/svg" xmlns:xlink="http://www.w3.org/1999/xlink" x="0px" y="0px"
	 viewBox="0 0 150 148.5" style="enable-background:new 0 0 150 148.5;" xml:space="preserve">
<style type="text/css">
	.st0{fill:#1A1918;}
	.st1{fill:#21609B;}
</style>
<g>
	<path class="st0" d="M143.7,59.8h6.3c0,0-11.7,15.8-12.7,17.1c-0.3,0.4-0.8,0.9-1,1.4c-0.6,1.4-1.2,4.5-1.2,4.5h-5.7
		c0,0,0.9-3.2,0.9-4.9c0-1.5-0.8-3-1.2-4.5c-0.4-1.5-1-4.5-1-4.5h5.9l0.8,3.3L143.7,59.8"/>
	<path class="st0" d="M131.8,63.1c1.2,0.7,1.9,4.6,1.9,4.6l-9.4,0.1h-2.9l-3.5,15.1h-5.3c0,0,3.3-16.4,4.1-19.3
		c0.3-1,1.7-0.8,4.2-0.8h4C127.5,62.7,130.5,62.4,131.8,63.1 M107.1,70.5c0,0,0.2-1-0.6-2.1c-0.6-1-1.2-1.2-2.8-1.2
		c-4.6-0.1-4.5,3.3-4.5,3.3L107.1,70.5z M112.1,66.5c0.7,2.4-0.6,8.2-0.6,8.2s-6.7-0.1-10.4,0c-1.1,0-2.5-0.1-2.9,0.4
		c-0.5,0.7,0.2,1.9,0.7,2.4c0.6,0.6,1.9,0.6,2.3,0.7c3,0.4,9.2,0.1,9.2,0.1l-1.1,4.8c0,0-8.8,0.4-13.3-0.6c-0.9-0.2-1.7-0.6-2.2-1.2
		c-0.2-0.2-0.3-0.4-0.4-0.6c-0.1-0.2-0.4-0.7-0.6-1.1c-1-2.7,0.1-7.8,1.2-10.6c0.1-0.3,0.3-0.7,0.5-1.1c0.2-0.4,0.4-0.9,0.6-1.2
		c0.1-0.2,0.3-0.3,0.4-0.5c0.1-0.2,0.3-0.4,0.4-0.6c0.4-0.5,0.9-0.8,1.4-1.2c1.8-1.4,5.2-2.4,9.2-2c1.5,0.2,3.8,0.7,4.9,2.2
		C111.7,65.1,111.9,65.9,112.1,66.5L112.1,66.5z M87.7,62.6h5.1c0,0-2.9,13.6-4.3,20.3h-5.9c-4.1,0-7.8,0.5-9.4-2.4
		c-1.5-2.9-0.1-7.6,0.6-10.8c0.5-2.3,1.5-6.9,1.5-6.9h5.3c0,0-1.5,7.2-2.1,10.8c-0.2,1.3-0.7,2.5-0.2,3.5c0.5,0.9,1.1,1,3.1,1
		c0.6,0,2.7,0,2.7,0L87.7,62.6 M63.6,72.4c0.5-1.9,1.3-4,1.2-5.7c-0.1-1.8-1.7-3.5-2.7-3.9c-3-1.1-5.8,0.4-6.9,1.6
		c-1.4,1.6-1.9,3.4-2.4,5.9c-0.4,1.9-0.7,3.8,0,5.3c1.2,2.6,5.1,2,9.2,2C62.6,76.1,63.1,74.3,63.6,72.4L63.6,72.4z M70.7,64.9
		c0.6,4.3-1.7,9-3.2,13.1c1.6,0.1,3,0,3.1,0.1c0.1,0.2-1.1,4.9-1.5,4.9c-1.2,0-5.4,0-7.1,0c-5.7,0-11,0.4-13.7-2.4
		c-1.1-1.1-1.9-3.1-2-4.5c-0.3-2.3,0.1-4.8,0.6-6.9c0.5-1.9,1.1-3.7,2-5.3c2.4-4.2,6.5-7.2,13.5-6.5c1.3,0.1,3.3,0.7,4.5,1.4
		c0.1,0,0.4,0.3,0.4,0.3C68.9,60.1,70.4,62.6,70.7,64.9L70.7,64.9z M45.6,62.7c-0.3,1.6-0.7,3.3-1,4.8h-5.7c0.4-1.7,0.8-3.4,1.2-4.9
		C41.9,62.6,45.6,62.7,45.6,62.7 M38.6,69h5.5c-0.7,4-2.1,10.4-3.3,14.9c-0.7,2.8-1.2,4.8-3.1,6.3c-0.2,0.1-0.3,0.1-0.4,0.2
		c-0.3,0.3-2,0.7-2.9,0.8c-1.5,0.2-3.1,0-4.9,0c0.5-1.7,1-3.8,1.4-5.3c4.3,0.5,4.5-3.6,5.3-7.5C36.9,76,38.4,69.9,38.6,69"/>
	<g>
		<path class="st1" d="M25.8,79.4l-0.1,0.3c-2,3.9-5.6,6.3-10.7,6.4c-2.4,0-4.6-0.6-6.1-1.2c-3.2-1.4-5.9-4.1-7.3-6.9
			c-2.1-4.1-2.5-9.7,1.9-14c0.1,0-0.5,0.9-0.5,0.9l-0.1,0.4c-3.1,9.9,6.6,18.3,16,17.3C21.1,82.4,24,81.2,25.8,79.4"/>
		<path class="st1" d="M20.1,75.3c2.4,0,4.9-1.1,6.3-2.7c-1.3,3.3-5,5.4-10,4.7c-4.2-0.6-8.2-4.8-8.6-9c-0.3-3.1,0.8-4.9,2.5-7.1
			c-0.6,1.2-0.8,2.1-0.9,2.6C8.7,70.5,14.7,75.3,20.1,75.3"/>
		<path class="st1" d="M26.2,67.1c-0.4,0.8-2.5,2.4-3.4,2.6c-3.7,0.8-6.1-1-7.3-3c-0.2-0.3-0.5-1.1-0.6-1.3
			c-0.5-1.6-0.3-4.1,1.2-5.4c-0.4,1.2-0.5,2.6-0.3,3.6c0.1,0.6,0.6,1.5,1,2.1c0.8,1.1,1.3,1.4,2.2,2c0.4,0.3,0.9,0.5,1.1,0.5
			C21,68.5,23,69.2,26.2,67.1"/>
	</g>
</g>
</svg>
