<?xml version="1.0" encoding="utf-8"?>
<!-- Generator: Adobe Illustrator 21.0.0, SVG Export Plug-In . SVG Version: 6.00 Build 0)  -->
<svg version="1.1" id="Layer_1" xmlns="http://www.w3.org/2000/svg" xmlns:xlink="http://www.w3.org/1999/xlink" x="0px" y="0px"
	 viewBox="0 0 150 150" style="enable-background:new 0 0 150 150;" xml:space="preserve">
<style type="text/css">
	.st0{fill:#8CC84B;}
</style>
<g>
	<path class="st0" d="M68.9,1.6c3.7-2.1,8.6-2.1,12.3,0c18.7,10.6,37.4,21.1,56.1,31.7c3.5,2,5.9,5.9,5.8,9.9v63.6
		c0,4.2-2.6,8.2-6.3,10.2c-18.6,10.5-37.3,21-55.9,31.5c-3.8,2.2-8.7,2-12.4-0.3c-5.6-3.2-11.2-6.5-16.8-9.7
		c-1.1-0.7-2.4-1.2-3.2-2.3c0.7-1,2-1.1,3-1.5c2.3-0.7,4.5-1.9,6.6-3.1c0.5-0.4,1.2-0.2,1.7,0.1c4.8,2.7,9.5,5.6,14.3,8.3
		c1,0.6,2.1-0.2,2.9-0.7c18.3-10.3,36.6-20.6,54.9-31c0.7-0.3,1.1-1,1-1.8c0-21,0-41.9,0-62.9c0.1-0.8-0.4-1.6-1.2-2
		c-18.6-10.5-37.1-20.9-55.7-31.4c-0.7-0.5-1.5-0.5-2.2,0C55.3,20.7,36.8,31.1,18.2,41.6c-0.8,0.3-1.3,1.1-1.2,2c0,21,0,41.9,0,62.9
		c-0.1,0.7,0.3,1.4,1,1.8c5,2.8,9.9,5.6,14.9,8.4c2.8,1.5,6.2,2.4,9.3,1.2c2.7-1,4.6-3.7,4.6-6.6c0-20.8,0-41.7,0-62.5
		c-0.1-0.9,0.8-1.7,1.7-1.6c2.4,0,4.8,0,7.1,0c1,0,1.7,1,1.6,1.9c0,21,0,42,0,62.9c0,5.6-2.3,11.7-7.5,14.4
		c-6.4,3.3-14.2,2.6-20.5-0.6c-5.4-2.7-10.6-5.9-16-8.8c-3.7-1.9-6.3-5.9-6.3-10.2V43.2c0-4.1,2.4-8.1,6-10.1
		C31.6,22.6,50.2,12.1,68.9,1.6z"/>
	<path class="st0" d="M85.1,45.6c8.1-0.5,16.8-0.3,24.1,3.7c5.7,3.1,8.8,9.5,8.9,15.8c-0.2,0.8-1,1.3-1.9,1.3c-2.4,0-4.7,0-7.1,0
		c-1,0-1.6-0.9-1.7-1.8c-0.7-3-2.3-6-5.2-7.4c-4.3-2.2-9.4-2.1-14.1-2c-3.5,0.2-7.2,0.5-10.1,2.5c-2.3,1.5-2.9,4.7-2.1,7.2
		c0.8,1.8,2.8,2.4,4.5,2.9c9.8,2.6,20.2,2.3,29.8,5.7c4,1.4,7.9,4,9.2,8.2c1.8,5.6,1,12.3-3,16.7c-3.2,3.7-7.9,5.7-12.6,6.8
		c-6.2,1.4-12.7,1.4-19,0.8c-5.9-0.7-12.1-2.2-16.7-6.3c-3.9-3.4-5.8-8.7-5.6-13.8c0-0.9,0.9-1.5,1.7-1.4c2.4,0,4.7,0,7.1,0
		c0.9-0.1,1.7,0.8,1.7,1.6c0.4,2.9,1.5,5.9,4,7.6c4.8,3.1,10.9,2.9,16.4,3c4.6-0.2,9.7-0.3,13.5-3.3c2-1.7,2.6-4.6,2-7.1
		c-0.6-2.1-2.8-3.1-4.7-3.7c-9.7-3.1-20.2-1.9-29.7-5.4c-3.9-1.4-7.6-4-9.1-8c-2.1-5.7-1.1-12.6,3.3-17
		C73.1,47.9,79.2,46.2,85.1,45.6L85.1,45.6z"/>
</g>
</svg>
