<?xml version="1.0" encoding="utf-8"?>
<!-- Generator: Adobe Illustrator 21.0.0, SVG Export Plug-In . SVG Version: 6.00 Build 0)  -->
<svg version="1.1" id="Layer_1" xmlns="http://www.w3.org/2000/svg" xmlns:xlink="http://www.w3.org/1999/xlink" x="0px" y="0px"
	 viewBox="0 0 150 150" style="enable-background:new 0 0 150 150;" xml:space="preserve">
<style type="text/css">
	.st0{fill:#83CD29;}
	.st1{fill:#404137;}
</style>
<g>
	<g>
		<path class="st0" d="M138,68.9c-0.4,0-0.7,0.1-1,0.3l-9.9,5.7c-0.6,0.4-1,1.1-1,1.8v11.5c0,0.7,0.4,1.4,1,1.8l2.6,1.5
			c1.3,0.6,1.7,0.6,2.3,0.6c1.9,0,2.9-1.1,2.9-3.1V77.6c0-0.2-0.1-0.3-0.3-0.3h-1.2c-0.2,0-0.3,0.1-0.3,0.3V89c0,0.9-0.9,1.8-2.4,1
			l-2.7-1.6c-0.1-0.1-0.2-0.1-0.2-0.3V76.7c0-0.1,0.1-0.2,0.2-0.3l9.9-5.7c0.1-0.1,0.2-0.1,0.3,0l9.9,5.7c0.1,0.1,0.2,0.2,0.2,0.3
			v11.5c0,0.1-0.1,0.2-0.1,0.3l-9.9,5.7c-0.1,0.1-0.2,0.1-0.3,0l-2.6-1.5c-0.1,0-0.2,0-0.3,0c-0.7,0.4-0.8,0.4-1.5,0.7
			c-0.2,0.1-0.4,0.1,0.1,0.4l3.3,2c0.3,0.2,0.7,0.3,1,0.3c0.4,0,0.7-0.1,1-0.3l9.9-5.7c0.6-0.4,1-1.1,1-1.8V76.7
			c0-0.7-0.4-1.4-1-1.8l-9.9-5.7C138.7,68.9,138.4,68.9,138,68.9L138,68.9z"/>
		<path class="st0" d="M140.6,77c-2.8,0-4.5,1.2-4.5,3.2c0,2.2,1.7,2.8,4.4,3c3.3,0.3,3.5,0.8,3.5,1.4c0,1.1-0.9,1.6-3,1.6
			c-2.6,0-3.2-0.7-3.4-2c0-0.1-0.1-0.3-0.3-0.3h-1.3c-0.2,0-0.3,0.1-0.3,0.3c0,1.7,0.9,3.7,5.3,3.7c3.1,0,5-1.2,5-3.4
			c0-2.1-1.5-2.7-4.5-3.1c-3.1-0.4-3.4-0.6-3.4-1.3c0-0.6,0.2-1.4,2.5-1.4c2,0,2.8,0.4,3.1,1.8c0,0.1,0.1,0.2,0.3,0.2h1.3
			c0.1,0,0.2,0,0.2-0.1c0.1-0.1,0.1-0.1,0.1-0.2C145.4,78.2,143.8,77,140.6,77L140.6,77z"/>
	</g>
	<path class="st1" d="M79.5,53.8c-0.1,0-0.2,0-0.3,0.1c-0.2,0.1-0.3,0.3-0.3,0.5v16.2c0,0.2-0.1,0.3-0.2,0.4c-0.1,0.1-0.3,0.1-0.4,0
		l-2.6-1.5c-0.4-0.2-0.9-0.2-1.3,0l-10.5,6.1c-0.4,0.2-0.6,0.7-0.6,1.1v12.2c0,0.5,0.2,0.9,0.6,1.1L74.3,96c0.4,0.2,0.9,0.2,1.3,0
		l10.5-6.1c0.4-0.2,0.6-0.6,0.6-1.1V58.5c0-0.5-0.3-0.9-0.7-1.1l-6.3-3.5C79.7,53.8,79.6,53.8,79.5,53.8L79.5,53.8z M11.7,69
		c-0.2,0-0.4,0-0.6,0.1L0.6,75.2C0.2,75.5,0,75.9,0,76.3l0,16.3c0,0.2,0.1,0.4,0.3,0.5c0.2,0.1,0.4,0.1,0.6,0l6.2-3.6
		c0.4-0.2,0.7-0.6,0.7-1.1v-7.6c0-0.5,0.2-0.9,0.6-1.1l2.7-1.5c0.2-0.1,0.4-0.2,0.6-0.2c0.2,0,0.4,0.1,0.6,0.2l2.7,1.5
		c0.4,0.2,0.6,0.6,0.6,1.1v7.6c0,0.5,0.3,0.9,0.7,1.1l6.2,3.6c0.2,0.1,0.4,0.1,0.6,0c0.2-0.1,0.3-0.3,0.3-0.5l0-16.3
		c0-0.5-0.2-0.9-0.6-1.1l-10.5-6.1C12.3,69,12.1,69,11.9,69H11.7z M106.4,69.2c-0.2,0-0.4,0.1-0.6,0.2l-10.5,6.1
		c-0.4,0.2-0.6,0.6-0.6,1.1v12.2c0,0.5,0.3,0.9,0.7,1.1l10.5,6c0.4,0.2,0.9,0.2,1.2,0l6.3-3.5c0.2-0.1,0.3-0.3,0.3-0.5
		c0-0.2-0.1-0.4-0.3-0.5L102.7,85c-0.2-0.1-0.3-0.3-0.3-0.6v-3.8c0-0.2,0.1-0.4,0.3-0.5l3.3-1.9c0.2-0.1,0.4-0.1,0.6,0l3.3,1.9
		c0.2,0.1,0.3,0.3,0.3,0.5v3c0,0.2,0.1,0.4,0.3,0.5c0.2,0.1,0.4,0.1,0.6,0l6.3-3.7c0.4-0.2,0.6-0.6,0.6-1.1v-2.9
		c0-0.5-0.2-0.9-0.6-1.1l-10.5-6.1C106.9,69.2,106.6,69.1,106.4,69.2L106.4,69.2z M74.9,78.2c0.1,0,0.1,0,0.2,0l3.6,2.1
		c0.1,0.1,0.2,0.2,0.2,0.3v4.2c0,0.1-0.1,0.2-0.2,0.3l-3.6,2.1c-0.1,0.1-0.2,0.1-0.3,0l-3.6-2.1C71.1,85,71,84.9,71,84.8v-4.2
		c0-0.1,0.1-0.2,0.2-0.3l3.6-2.1C74.8,78.2,74.9,78.2,74.9,78.2L74.9,78.2L74.9,78.2z"/>
	<path class="st0" d="M43.4,69.1c-0.2,0-0.4,0.1-0.6,0.2l-10.5,6.1c-0.4,0.2-0.6,0.7-0.6,1.1v12.2c0,0.5,0.2,0.9,0.6,1.1l10.5,6.1
		c0.4,0.2,0.9,0.2,1.3,0l10.5-6.1c0.4-0.2,0.6-0.6,0.6-1.1V76.4c0-0.5-0.2-0.9-0.6-1.1L44,69.3C43.8,69.1,43.6,69.1,43.4,69.1
		L43.4,69.1z M106.4,79.9c0,0-0.1,0-0.1,0l-2,1.2c-0.1,0-0.1,0.1-0.1,0.2v2.3c0,0.1,0.1,0.2,0.1,0.2l2,1.2c0.1,0,0.2,0,0.2,0l2-1.2
		c0.1,0,0.1-0.1,0.1-0.2v-2.3c0-0.1-0.1-0.2-0.1-0.2l-2-1.2C106.5,79.9,106.4,79.9,106.4,79.9L106.4,79.9z"/>
</g>
</svg>
