<?xml version="1.0" encoding="utf-8"?>
<!-- Generator: Adobe Illustrator 21.0.0, SVG Export Plug-In . SVG Version: 6.00 Build 0)  -->
<svg version="1.1" id="Layer_1" xmlns="http://www.w3.org/2000/svg" xmlns:xlink="http://www.w3.org/1999/xlink" x="0px" y="0px"
	 viewBox="0 0 150 150" style="enable-background:new 0 0 150 150;" xml:space="preserve">
<style type="text/css">
	.st0{fill:url(#SVGID_1_);}
	.st1{fill:#31C5F0;}
</style>
<g>
	
		<radialGradient id="SVGID_1_" cx="-324.9807" cy="-109.6892" r="4.534702e-02" gradientTransform="matrix(2304.4519 0 0 -2288.3333 748954.0625 -250968.3594)" gradientUnits="userSpaceOnUse">
		<stop  offset="0" style="stop-color:#34364E;stop-opacity:0.98"/>
		<stop  offset="1" style="stop-color:#0C0824"/>
	</radialGradient>
	<path class="st0" d="M6.2,6.4h137.5v137.2H6.2V6.4z"/>
	<path class="st1" d="M6.2,6.4h137.5v137.2H6.2V6.4z M0,150h150V0H0V150z M101.1,61.5c-4.9,0-6.6,2.6-6.6,4.7c0,2.3,1.1,3.9,7.7,7.4
		c9.8,4.9,12.9,9.6,12.9,16.4c0,10.3-7.6,15.8-17.9,15.8c-5.4,0-10.1-1.2-12.8-2.8c-0.4-0.2-0.5-0.5-0.5-1v-9.4
		c0-0.6,0.3-0.8,0.8-0.5c3.9,2.6,8.4,3.8,12.6,3.8c4.9,0,7-2.1,7-5c0-2.3-1.4-4.4-7.8-7.7c-8.9-4.4-12.6-8.8-12.6-16.2
		c0-8.3,6.3-15.1,17.2-15.1c5.4,0,9.1,0.8,11.2,1.8c0.5,0.3,0.6,0.8,0.6,1.3v8.8c0,0.5-0.3,0.8-0.9,0.6
		C109.2,62.6,105.2,61.5,101.1,61.5L101.1,61.5z M47.4,69.2c1.4,0.1,2.6,0.1,5.1,0.1c7.3,0,14.2-2.6,14.2-12.8
		c0-8.1-4.9-12.2-13.2-12.2c-2.5,0-4.9,0.1-6,0.2V69.2z M36.3,35.1c0-0.4,0.9-0.8,1.4-0.8c4-0.2,9.9-0.3,16.1-0.3
		c17.3,0,24.1,9.7,24.1,22.2c0,16.3-11.5,23.3-25.6,23.3c-2.4,0-3.2-0.1-4.9-0.1V104c0,0.5-0.2,0.8-0.7,0.8H37
		c-0.5,0-0.8-0.2-0.8-0.8L36.3,35.1L36.3,35.1z"/>
</g>
</svg>
