<?xml version="1.0" encoding="utf-8"?>
<!-- Generator: Adobe Illustrator 21.0.0, SVG Export Plug-In . SVG Version: 6.00 Build 0)  -->
<svg version="1.1" id="Layer_1" xmlns="http://www.w3.org/2000/svg" xmlns:xlink="http://www.w3.org/1999/xlink" x="0px" y="0px"
	 viewBox="0 0 150 150" style="enable-background:new 0 0 150 150;" xml:space="preserve">
<style type="text/css">
	.st0{clip-path:url(#SVGID_2_);}
	.st1{fill:#00749A;}
	.st2{fill:#464342;}
</style>
<g>
	<defs>
		<rect id="SVGID_1_" x="0.8" y="0.8" width="148.4" height="148.4"/>
	</defs>
	<clipPath id="SVGID_2_">
		<use xlink:href="#SVGID_1_"  style="overflow:visible;"/>
	</clipPath>
	<g class="st0">
		<path class="st1" d="M380.2,59.2h-25.7v2.7c8.1,0,9.3,1.7,9.3,11.9v18.4c0,10.2-1.3,12.1-9.3,12.1c-6.2-0.9-10.4-4.2-16.1-10.5
			l-6.6-7.2c8.9-1.6,13.7-7.2,13.7-13.5c0-7.9-6.8-14-19.4-14h-25.3v2.7c8.1,0,9.3,1.7,9.3,11.9v18.4c0,10.2-1.3,12.1-9.3,12.1v2.7
			h28.6v-2.7c-8.1,0-9.3-1.9-9.3-12.1v-5.2h2.4l16,20h41.9c20.6,0,29.5-10.9,29.5-24C409.6,70,400.7,59.2,380.2,59.2L380.2,59.2z
			 M319.9,82.7V63.5h5.9c6.5,0,9.3,4.5,9.3,9.6c0,5-2.9,9.5-9.3,9.5L319.9,82.7z M380.6,102.7h-1c-5.2,0-5.9-1.3-5.9-7.9V63.5h6.9
			c15,0,17.7,10.9,17.7,19.4C398.3,91.7,395.6,102.7,380.6,102.7z M220.5,88l9.9-29.3c2.9-8.5,1.6-10.9-7.6-10.9v-2.9h27v2.9
			c-9.1,0-11.2,2.2-14.8,12.7l-16.4,49.2h-1.9l-14.7-45l-15,45h-1.9l-16-49.2c-3.5-10.5-5.8-12.7-14.1-12.7v-2.9h31.9v2.9
			c-8.5,0-10.8,2-7.8,10.9L189,88l14.5-43.2h2.7L220.5,88L220.5,88z M269.4,109c-15.8,0-28.8-11.7-28.8-25.9
			c0-14.1,12.9-25.7,28.8-25.7s28.8,11.7,28.8,25.7C298.2,97.3,285.2,109,269.4,109z M269.4,61.8c-13.2,0-17.8,11.9-17.8,21.3
			c0,9.5,4.6,21.3,17.8,21.3c13.4,0,18-11.8,18-21.3C287.4,73.7,282.8,61.8,269.4,61.8L269.4,61.8z"/>
		<path class="st2" d="M445.2,104.2v2.9h-32.9v-2.9c9.6,0,11.4-2.4,11.4-16.8v-23c0-14.4-1.7-16.7-11.4-16.7v-2.9H442
			c14.8,0,23,7.6,23,17.8c0,9.9-8.2,17.7-23,17.7h-8.2v7C433.8,101.8,435.5,104.2,445.2,104.2L445.2,104.2z M442,50h-8.2v25h8.2
			c8.1,0,11.8-5.6,11.8-12.4C453.8,55.8,450.1,50,442,50z M563.8,93.6l-0.7,2.6c-1.3,4.7-2.9,6.5-13.1,6.5h-2
			c-7.5,0-8.8-1.7-8.8-11.9v-6.6c11.2,0,12.1,1,12.1,8.5h2.7V71.1h-2.7c0,7.5-0.9,8.5-12.1,8.5V63.5h7.9c10.2,0,11.8,1.7,13.1,6.5
			l0.7,2.7h2.3l-1-13.5H520v2.7c8.1,0,9.3,1.7,9.3,11.9v18.4c0,9.3-1.1,11.7-7.4,12c-6-0.9-10.2-4.2-15.8-10.5l-6.6-7.2
			c8.9-1.6,13.7-7.2,13.7-13.5c0-7.9-6.8-14-19.4-14h-25.3v2.7c8.1,0,9.3,1.7,9.3,11.9v18.4c0,10.2-1.3,12.1-9.3,12.1v2.7H497v-2.7
			c-8.1,0-9.3-1.9-9.3-12.1v-5.2h2.4l16,20h59.1l0.9-13.5L563.8,93.6L563.8,93.6z M487.6,82.7V63.5h5.9c6.5,0,9.4,4.5,9.4,9.6
			c0,5-2.9,9.5-9.4,9.5L487.6,82.7z M593,109c-5.8,0-10.8-3-12.9-4.9c-0.7,0.7-2,2.9-2.3,4.9h-2.7V89.1h2.9
			c1.2,9.5,7.8,15.1,16.3,15.1c4.6,0,8.3-2.6,8.3-6.9c0-3.7-3.3-6.6-9.2-9.3l-8.2-3.9c-5.8-2.7-10.1-7.5-10.1-13.8
			c0-6.9,6.5-12.8,15.4-12.8c4.7,0,8.8,1.7,11.2,3.7c0.7-0.6,1.4-2.2,1.9-3.9h2.7v17h-3c-1-6.8-4.7-12.4-12.4-12.4
			c-4,0-7.8,2.3-7.8,5.9c0,3.7,3,5.8,9.9,8.9l7.9,3.9c6.9,3.3,9.6,8.6,9.6,12.9C610.6,102.7,602.7,109,593,109L593,109z M637.3,109
			c-5.8,0-10.8-3-12.9-4.9c-0.7,0.7-2,2.9-2.3,4.9h-2.7V89.1h2.9c1.2,9.5,7.8,15.1,16.3,15.1c4.6,0,8.3-2.6,8.3-6.9
			c0-3.7-3.3-6.6-9.2-9.3l-8.2-3.9c-5.8-2.7-10.1-7.5-10.1-13.8c0-6.9,6.5-12.8,15.4-12.8c4.7,0,8.8,1.7,11.2,3.7
			c0.7-0.6,1.4-2.2,1.9-3.9h2.7v17h-3c-1-6.8-4.7-12.4-12.4-12.4c-4,0-7.8,2.3-7.8,5.9c0,3.7,3,5.8,9.9,8.9l7.9,3.9
			c6.9,3.3,9.6,8.6,9.6,12.9C654.9,102.7,647,109,637.3,109L637.3,109z"/>
		<g>
			<path class="st1" d="M11.3,75c0,25.2,14.6,47,35.9,57.3L16.9,49.1C13.2,57.2,11.3,66.1,11.3,75L11.3,75z M118,71.8
				c0-7.9-2.8-13.3-5.2-17.6c-3.2-5.2-6.3-9.7-6.3-14.9c0-5.9,4.4-11.3,10.7-11.3c0.3,0,0.5,0,0.8,0.1c-11.3-10.4-26.4-16.7-43-16.7
				c-22.2,0-41.8,11.4-53.2,28.7c1.5,0,2.9,0.1,4.1,0.1c6.7,0,17-0.8,17-0.8c3.4-0.2,3.8,4.8,0.4,5.2c0,0-3.4,0.4-7.3,0.6l23.2,69
				l13.9-41.8l-9.9-27.2c-3.4-0.2-6.7-0.6-6.7-0.6c-3.4-0.2-3-5.4,0.4-5.2c0,0,10.5,0.8,16.8,0.8c6.7,0,17-0.8,17-0.8
				c3.4-0.2,3.8,4.8,0.4,5.2c0,0-3.5,0.4-7.3,0.6l23,68.4l6.3-21.2C115.9,83.6,118,77.2,118,71.8L118,71.8z"/>
			<path class="st1" d="M76.1,80.6L57,136.1c5.8,1.7,11.9,2.6,18,2.6c7.4,0,14.5-1.3,21.1-3.6c-0.2-0.3-0.3-0.6-0.5-0.9L76.1,80.6z
				 M130.9,44.5c0.3,2,0.4,4.2,0.4,6.5c0,6.5-1.2,13.7-4.8,22.8L107,130c18.9-11,31.7-31.5,31.7-55C138.7,64.3,136,53.8,130.9,44.5
				L130.9,44.5z"/>
			<path class="st1" d="M75,0.8C34.1,0.8,0.8,34.1,0.8,75c0,40.9,33.3,74.2,74.2,74.2c40.9,0,74.2-33.3,74.2-74.2
				C149.2,34.1,115.9,0.8,75,0.8z M75,145.8C36,145.8,4.2,114,4.2,75C4.2,36,36,4.2,75,4.2c39,0,70.8,31.8,70.8,70.8
				C145.8,114,114,145.8,75,145.8L75,145.8z"/>
		</g>
	</g>
</g>
</svg>
