<?xml version="1.0" encoding="utf-8"?>
<!-- Generator: Adobe Illustrator 21.0.0, SVG Export Plug-In . SVG Version: 6.00 Build 0)  -->
<svg version="1.1" id="Layer_1" xmlns="http://www.w3.org/2000/svg" xmlns:xlink="http://www.w3.org/1999/xlink" x="0px" y="0px"
	 viewBox="0 0 1366 650.4" style="enable-background:new 0 0 1366 650.4;" xml:space="preserve">
<style type="text/css">
	.st0{fill:#AAFDFF;}
	.st1{fill:#B9FCFF;}
	.st2{fill:#9AF6FF;}
	.st3{fill:#B2F8FF;}
	.st4{fill:#3DFFFC;}
	.st5{fill:#B7ECFF;}
	.st6{fill:#CCEEFF;}
	.st7{fill:#C8F3FF;}
</style>
<title>Footer SVG</title>
<polygon class="st0" points="571,375 452,180 788,232 "/>
<polygon class="st1" points="452,180 672,38 788,232 "/>
<polygon class="st2" points="672,38 1233,114 788,232 "/>
<polygon class="st3" points="571,375 1110,401 788,232 "/>
<polygon class="st4" points="1110,401 1433,236 788,232 "/>
<polygon class="st3" points="1540,621 1433,236 1110,401 "/>
<polygon class="st3" points="1433,236 1232,114 788,232 "/>
<polygon class="st3" points="739,810 404,727 894,617 "/>
<polygon class="st4" points="404,727 571,375 894,617 "/>
<polygon class="st2" points="571,375 1110,401 894,617 "/>
<polygon class="st2" points="738,809 1216,786 894,617 "/>
<polygon class="st3" points="1216,786 1539,621 894,617 "/>
<polygon class="st5" points="1539,621 1110,401 894,617 "/>
<polygon class="st6" points="672,38 641,-170 881,-86 "/>
<polygon class="st3" points="423,-296 642,-169 672,39 "/>
<polygon class="st3" points="672,38 1232,114 881,-86 "/>
<polygon class="st0" points="1232,114 1412,-10 881,-86 "/>
<polygon class="st7" points="1433,236 1412,-10 1232,114 "/>
<polygon class="st6" points="1412,-10 1519,-300 881,-86 "/>
<polygon class="st4" points="-78,176 -138,-104 101,-20 "/>
<polygon class="st6" points="-138,-104 29,-326 101,-20 "/>
<polygon class="st3" points="29,-326 423,-296 101,-20 "/>
<polygon class="st1" points="-78,176 452,180 101,-20 "/>
<polygon class="st3" points="452,180 672,38 101,-20 "/>
<polygon class="st6" points="672,38 423,-296 101,-20 "/>
<polygon class="st2" points="-86,752 -144,425 95,509 "/>
<polygon class="st1" points="-144,425 -78,176 95,509 "/>
<polygon class="st6" points="-78,176 453,180 95,509 "/>
<polygon class="st4" points="-86,752 404,727 95,509 "/>
<polygon class="st3" points="404,727 571,375 95,509 "/>
<polygon class="st2" points="571,375 452,180 95,509 "/>
</svg>
