<svg version="1.1" id="Layer_1" xmlns="http://www.w3.org/2000/svg" xmlns:xlink="http://www.w3.org/1999/xlink" x="0" y="0" viewBox="0 0 347.4 81.3" xml:space="preserve" enable-background="new 0 0 347.4 81.3"><path d="M75.8,1.4H7.2c-2.8,0-5,2.3-5,5V75c0,2.8,2.3,5,5,5h36.9V49.6H33.8V37.7H44c0,0,0.2-4.2,0.2-10.6s4.8-10.9,7-12	s5.6-1.9,9.2-1.8c3.5,0.2,8,0.6,8,0.6l0.2,10.4c0,0-5.6,0.1-7.8,0.2c-2.1,0.1-4.4,1.2-4.4,5.1s0,8,0,8h11.9l-1.7,11.9H56.5V80h19.3	c2.8,0,5-2.3,5-5V6.4C80.9,3.6,78.6,1.4,75.8,1.4z"/><path d="M336.5,22.5c0,0,1.1,25.7-18.4,43.1S272.8,78.9,265,75.7c-7.9-3.1-11.6-5.5-11.6-5.5s10.1,0.4,16.8-1.6	c6.7-2,11.4-6.4,11.4-6.4s-5.5,0-10.4-3.4s-7.1-9.4-7.1-9.4s2.2,0,4.5,0s3.5-0.6,3.5-0.6s-5.5-1.5-9.8-5.8	c-4.3-4.4-4.9-12.6-4.9-12.6s1.8,1,3.7,1.6c1.9,0.6,4.4,0.7,4.4,0.7s-5.4-3.3-7.4-10.9s2.1-14.2,2.1-14.2s8.4,9.5,18.4,14.5	s20.1,5,20.1,5s-2.1-12.6,7.7-19.5s18.8-2,21-0.8c2.1,1.2,3.5,3.4,3.5,3.4s2-0.3,5.3-1.5s7.1-3.3,7.1-3.3s-1.6,4-3.3,5.8	s-4.9,4.3-4.9,4.3s1.9,0.1,5.4-0.8c3.5-0.9,5.7-1.9,5.7-1.9s-1.9,2.9-5,5.8S336.5,22.5,336.5,22.5z"/><path d="M209,74.3c0,3.1-2.6,5.7-5.7,5.7h-66.8c-3.1,0-5.7-2.6-5.7-5.7V6.9c0-3.1,2.6-5.7,5.7-5.7h66.8c3.1,0,5.7,2.6,5.7,5.7V74.3z M158.1,62.6V30.3h-11v32.4h11V62.6z M195.7,62.6V40.3c0-6.8-3.3-10.6-10.2-10.6c-4,0-7.9,1.8-9.7,5.5v-5.1h-10.2	c0,2.1,0,32.5,0,32.5h11V43.5c0-3,0.9-6.3,4.5-6.3c3.5,0,3.8,3,3.8,5.8v19.7h10.8L195.7,62.6L195.7,62.6z M152.4,13.4	c-3.3,0-6,2.7-6,6s2.7,6,6,6s6-2.7,6-6S155.7,13.4,152.4,13.4z"/></svg>