<?xml version="1.0" encoding="utf-8"?>
<!-- Generator: Adobe Illustrator 21.0.2, SVG Export Plug-In . SVG Version: 6.00 Build 0)  -->
<svg version="1.1" id="Layer_1" xmlns="http://www.w3.org/2000/svg" xmlns:xlink="http://www.w3.org/1999/xlink" x="0px" y="0px"
	 viewBox="0 0 376 74.9" style="enable-background:new 0 0 376 74.9;" xml:space="preserve">
<style type="text/css">
	.st0{fill:#77E6FF;}
	.st1{fill:#00FFFF;}
	.st2{fill:#02E3FF;}
	.st3{fill:#84F7FF;}
	.st4{fill:#FFFFFF;}
</style>
<title>Nav Image</title>
<polygon class="st4" points="388,-35 -19,-35 -19,99 388,99 "/>
<polygon class="st0" points="165,49 130,21 229,28 "/>
<polygon class="st1" points="130,21 195,0 229,28 "/>
<polygon class="st2" points="195,0 359,11 229,28 "/>
<polygon class="st3" points="165,49 323,53 229,28 "/>
<polygon class="st2" points="323,53 418,29 229,28 "/>
<polygon class="st1" points="449,86 418,29 323,53 "/>
<polygon class="st1" points="418,29 359,11 229,28 "/>
<polygon class="st1" points="214,113 116,101 260,85 "/>
<polygon class="st2" points="116,101 165,49 260,85 "/>
<polygon class="st1" points="165,49 323,53 260,85 "/>
<polygon class="st2" points="214,113 355,110 260,85 "/>
<polygon class="st2" points="355,110 449,86 260,85 "/>
<polygon class="st0" points="449,86 323,53 260,85 "/>
<polygon class="st3" points="195,0 186,-30 256,-18 "/>
<polygon class="st1" points="122,-49 186,-30 195,0 "/>
<polygon class="st1" points="195,0 359,11 256,-18 "/>
<polygon class="st3" points="359,11 412,-7 256,-18 "/>
<polygon class="st2" points="418,29 412,-7 359,11 "/>
<polygon class="st1" points="412,-7 443,-49 256,-18 "/>
<polygon class="st1" points="-25,20 -42,-20 27,-8 "/>
<polygon class="st1" points="-42,-20 6,-53 27,-8 "/>
<polygon class="st1" points="6,-53 122,-49 27,-8 "/>
<polygon class="st1" points="-25,20 130,21 27,-8 "/>
<polygon class="st0" points="130,21 195,0 27,-8 "/>
<polygon class="st1" points="195,0 122,-49 27,-8 "/>
<polygon class="st1" points="-27,105 -44,57 26,69 "/>
<polygon class="st1" points="-44,57 -25,20 26,69 "/>
<polygon class="st3" points="-25,20 130,21 26,69 "/>
<polygon class="st2" points="-27,105 116,101 26,69 "/>
<polygon class="st1" points="116,101 165,49 26,69 "/>
<polygon class="st1" points="165,49 130,21 26,69 "/>
</svg>
