<svg version="1.1" id="Signature" xmlns="http://www.w3.org/2000/svg" xmlns:xlink="http://www.w3.org/1999/xlink" x="0" y="0" viewBox="0 0 450 107" xml:space="preserve" enable-background="new 0 0 450 107"><style type="text/css">.st0{fill:#fff}</style><path class="st0" d="M126.5,39c-1.2,1.2-2.7,3.4-2.7,2.5c0-1,1.2-3.4-1.7-4.1c-2.1-0.5-4.5,1.2-6.9,3c-0.4,0.3-2.2,1.5-2.5,2	s-0.9,1.4-0.9,2c0,1.3,0.7,2.9,3.2,1.5c3.2-1.8,4.8-5.1,5.8-4.3c1,0.8-0.5,3.3,2.5,3.2c1.1,0,2.5,0,3.8-2.3c1.3-2.3,4.5-6.2,4.2-1.3	c1.3-1.4,10.6-8.7,12.2-7.2c2,2-6.7,7.4-9.8,9.2c-0.2,0.1-0.1,0.5,0.1,0.5c3.4-0.3,8.9-2.2,11-4.4c2.4-2.4,3.6-3.8,3.1-5.9	s-4-4.8-7.8-2.2c-3.3,2.2-4.4,3.5-5.8,5.2c-0.8,1-1.7,2.5-2.3,3.5C132.7,34.8,127.7,37.7,126.5,39z M262.7,24.8	c-8.6-3.6-49-1.2-60-1.5c1.5,0,13.8-4.8,18.3-6.1c3.1-1,11.3-4.2,15.8-7.2c4-2.7,3.5-10-9.1-9.9c-5.8,0-3.8-0.2-36,2.6	c-5.7,0.5-10.4,1-14.3,1.6c0-0.2,0-0.4,0-0.5c-0.1-1.6-2.4-1.8-2.7-0.2c0,0.2-0.1,0.6-0.1,1.1c-15.3,2.4-15.7,4.9-15.9,7.5	c-0.2,3.5,3.2,9.4,7.8,14.4c1-3.5,0.4-5.7-1.9-9.4c-2.3-3.8-2.6-5.3,1.1-6.4c1.1-0.4,4.2-0.9,8.5-1.4c-0.6,6.8-2.4,22.4-4.3,37.8	c-33.5,4.7-85.1,11.7-93.6,11C64,56.9,76.3,54.2,87,49.3c10.7-5,40-21.8,45-33.4c5-11.6-10.7-15.2-31.3-15.6C79.9,0,23.9,3,9.9,12.6	s-13.3,20.5,3,35.4c13,11.9,33.3,23.5,45.6,34.1c0.3,2.3,0.8,4.1,1.4,5.3c4.7,9.6,9.7,15.6,14.7,14.2c4.5-1.2-1.1-9.6-12.3-21.1	c-0.3-2-0.5-4.1-0.5-6.2c0.1-19.2,1.8-47.7,2.1-51c0.3-3.3-3.3-3.3-4,0.7C59.4,27,56.8,58.1,58,76.2c0,0,0,0-0.1-0.1	C40.2,58.8,1,38.6,6.2,23.1c4.3-12.7,46-16.9,58.7-17.6c12.7-0.7,56.7-4,61.7,4c2.8,4.5-3.6,11.2-11.4,17c-6,4.5-23,15-43.8,24	c-8.2,3.6-11.2,11-1.7,12.6c6.4,1.1,32.6-0.3,59.2-5c13-2.3,27.8-4.3,40.3-5.9c-2.1,17.6-4,33.5-4.1,34.4c4.3-4.7,4.3-11.9,5.8-15.6	c0.5-1.3,2-9,3.3-19.5c10.7-1.5,18.8-2.7,21-3.6c4.1-1.7,2.9,0.5,1,2.2c-0.4,0.3-0.1,1,0.4,0.9c5.3-1.1,9.4-8.2,1.6-7.6	c-2.3,0.2-11.2,1.4-23.3,3.1c0.3-2.7,0.6-5.5,0.9-8.3c1-10,1.7-20.9,1.6-29.3c16.4-2,44.7-4.5,54.5-3.9c1.2,0.1,1.5,1.7,0.4,2.1	c-8.8,4.1-27.5,11.2-39.2,13.8c-3.7,0.8-8.4,5.4,1.2,7.2c3.3,0.7,17.7,0.4,24.9,0.3c28-0.5,35.8-0.8,43.1,1.8c7.2,2.6,8,11-3.2,22	c-11.2,11-62.8,29.6-83.8,35.6c-21,5.9-66.5,17.1-77,18c10.5,1.2,37.8-3.5,51-6.7c13.2-3.3,29.8-7.9,52.8-15.4	c23-7.4,32.8-11.9,39.8-15.4s25.7-9.5,29.7-22.9C275.7,32,271.6,28.6,262.7,24.8z M66.2,89.9c6.8,9.2,1.3,6.8-2.2-2.7	C64.9,88.2,65.6,89.1,66.2,89.9z M343,56.1c-30.2,1.7-47.3,6-56.9,5.9c-3.4,0-1.9-1.2-2-2.9c-0.2-2.2-3.2-3.2-5.1,0.5	c-2.4,4.7-7.5,1.5-9.1-1.2c0.2,3.5,0.6,6.1,4.6,6.8c4,0.8,6.9-4.3,7.2-1.3c0.3,2.9,3.1,2.1,8.1,1.6c2.3-0.2,26.2-3.2,54-5	c31.5-2.1,68.2-3,84.2-2.3C405.6,54.8,372,54.5,343,56.1z"/></svg>